<svg width="299" height="75" viewBox="0 0 299 75" fill="none" xmlns="http://www.w3.org/2000/svg">
<path d="M40.3839 47H25.2639C21.2639 47 18.2879 46.2 16.3359 44.6C14.4159 43 13.4559 40.536 13.4559 37.208V22.232C13.4559 18.904 14.4159 16.44 16.3359 14.84C18.2879 13.24 21.2639 12.44 25.2639 12.44H37.2639C37.8719 12.44 38.3039 12.584 38.5599 12.872C38.8479 13.128 38.9919 13.56 38.9919 14.168V19.976C38.9919 20.584 38.8479 21.032 38.5599 21.32C38.3039 21.576 37.8719 21.704 37.2639 21.704H27.2799C26.2879 21.704 25.5519 21.912 25.0719 22.328C24.5919 22.712 24.3519 23.304 24.3519 24.104V35.576C24.3519 36.376 24.5279 36.968 24.8799 37.352C25.2639 37.736 25.8239 37.928 26.5599 37.928H31.2159V30.44C31.2159 29.832 31.3439 29.4 31.5999 29.144C31.8879 28.856 32.3359 28.712 32.9439 28.712H40.3839C40.9919 28.712 41.4239 28.856 41.6799 29.144C41.9679 29.4 42.1119 29.832 42.1119 30.44V45.272C42.1119 45.88 41.9679 46.328 41.6799 46.616C41.4239 46.872 40.9919 47 40.3839 47ZM60.4963 22.52L58.2403 29.816H65.7763L63.5203 22.52C63.3923 22.232 63.2483 22.024 63.0883 21.896C62.9603 21.768 62.8003 21.704 62.6083 21.704H61.4083C61.2163 21.704 61.0403 21.768 60.8803 21.896C60.7523 22.024 60.6243 22.232 60.4963 22.52ZM57.7603 45.272C57.7603 45.88 57.6163 46.328 57.3282 46.616C57.0723 46.872 56.6403 47 56.0323 47H48.9763C48.3683 47 47.9203 46.872 47.6323 46.616C47.3763 46.328 47.2483 45.88 47.2483 45.272V32.6C47.2483 31.64 47.3923 30.536 47.6803 29.288C48.0003 28.04 48.4803 26.584 49.1203 24.92L53.2963 14.024C53.4883 13.48 53.7763 13.08 54.1603 12.824C54.5763 12.568 55.1043 12.44 55.7443 12.44H68.6562C69.2643 12.44 69.7603 12.568 70.1443 12.824C70.5603 13.08 70.8643 13.48 71.0563 14.024L75.2323 24.92C75.8723 26.584 76.3363 28.04 76.6243 29.288C76.9443 30.536 77.1043 31.64 77.1043 32.6V45.272C77.1043 45.88 76.9603 46.328 76.6723 46.616C76.4163 46.872 75.9843 47 75.3763 47H68.1283C67.4883 47 67.0083 46.872 66.6883 46.616C66.4003 46.328 66.2563 45.88 66.2563 45.272V38.552H57.7603V45.272ZM91.9108 47H84.7588C84.1508 47 83.7028 46.872 83.4148 46.616C83.1588 46.328 83.0308 45.88 83.0308 45.272V14.168C83.0308 13.56 83.1588 13.128 83.4148 12.872C83.7028 12.584 84.1508 12.44 84.7588 12.44H92.4868C92.9988 12.44 93.4148 12.552 93.7348 12.776C94.0868 13 94.4068 13.368 94.6948 13.88L99.0148 21.704C99.1748 21.992 99.3028 22.2 99.3988 22.328C99.5268 22.456 99.6868 22.52 99.8788 22.52H100.311C100.503 22.52 100.647 22.456 100.743 22.328C100.871 22.2 101.015 21.992 101.175 21.704L105.447 13.88C105.735 13.368 106.039 13 106.359 12.776C106.711 12.552 107.143 12.44 107.655 12.44H115.431C116.039 12.44 116.471 12.584 116.727 12.872C117.015 13.128 117.159 13.56 117.159 14.168V45.272C117.159 45.88 117.015 46.328 116.727 46.616C116.471 46.872 116.039 47 115.431 47H108.039C107.431 47 106.983 46.872 106.695 46.616C106.439 46.328 106.311 45.88 106.311 45.272V28.376L103.479 33.608C103.191 34.152 102.839 34.552 102.423 34.808C102.039 35.032 101.543 35.144 100.935 35.144H99.0148C98.4068 35.144 97.8948 35.032 97.4788 34.808C97.0948 34.552 96.7588 34.152 96.4708 33.608L93.6388 28.376V45.272C93.6388 45.88 93.4948 46.328 93.2068 46.616C92.9508 46.872 92.5188 47 91.9108 47ZM147.765 47H125.493C124.885 47 124.437 46.872 124.149 46.616C123.893 46.328 123.765 45.88 123.765 45.272V14.168C123.765 13.56 123.893 13.128 124.149 12.872C124.437 12.584 124.885 12.44 125.493 12.44H147.765C148.373 12.44 148.805 12.584 149.061 12.872C149.349 13.128 149.493 13.56 149.493 14.168V19.784C149.493 20.392 149.349 20.84 149.061 21.128C148.805 21.384 148.373 21.512 147.765 21.512H134.517V25.208H143.877C144.485 25.208 144.917 25.352 145.173 25.64C145.461 25.896 145.605 26.328 145.605 26.936V32.072C145.605 32.68 145.461 33.128 145.173 33.416C144.917 33.672 144.485 33.8 143.877 33.8H134.517V37.928H147.765C148.373 37.928 148.805 38.072 149.061 38.36C149.349 38.616 149.493 39.048 149.493 39.656V45.272C149.493 45.88 149.349 46.328 149.061 46.616C148.805 46.872 148.373 47 147.765 47ZM192.113 47H167.681C167.073 47 166.625 46.872 166.337 46.616C166.081 46.328 165.953 45.88 165.953 45.272V14.168C165.953 13.56 166.081 13.128 166.337 12.872C166.625 12.584 167.073 12.44 167.681 12.44H175.121C175.729 12.44 176.161 12.584 176.417 12.872C176.705 13.128 176.849 13.56 176.849 14.168V37.928H183.425V30.152C183.425 29.544 183.553 29.112 183.809 28.856C184.097 28.568 184.545 28.424 185.153 28.424H192.113C192.721 28.424 193.153 28.568 193.409 28.856C193.697 29.112 193.841 29.544 193.841 30.152V45.272C193.841 45.88 193.697 46.328 193.409 46.616C193.153 46.872 192.721 47 192.113 47ZM200.288 47C199.68 47 199.232 46.872 198.944 46.616C198.688 46.328 198.56 45.88 198.56 45.272V39.56C198.56 38.952 198.688 38.52 198.944 38.264C199.232 37.976 199.68 37.832 200.288 37.832H205.04V21.704H200.288C199.68 21.704 199.232 21.576 198.944 21.32C198.688 21.032 198.56 20.584 198.56 19.976V14.168C198.56 13.56 198.688 13.128 198.944 12.872C199.232 12.584 199.68 12.44 200.288 12.44H220.736C221.344 12.44 221.776 12.584 222.032 12.872C222.32 13.128 222.464 13.56 222.464 14.168V19.976C222.464 20.584 222.32 21.032 222.032 21.32C221.776 21.576 221.344 21.704 220.736 21.704H216.08V37.832H220.736C221.344 37.832 221.776 37.976 222.032 38.264C222.32 38.52 222.464 38.952 222.464 39.56V45.272C222.464 45.88 222.32 46.328 222.032 46.616C221.776 46.872 221.344 47 220.736 47H200.288ZM244.422 47H229.254C228.646 47 228.198 46.872 227.91 46.616C227.654 46.328 227.526 45.88 227.526 45.272V39.656C227.526 39.048 227.654 38.616 227.91 38.36C228.198 38.072 228.646 37.928 229.254 37.928H242.166C242.582 37.928 242.886 37.8 243.078 37.544C243.302 37.256 243.414 36.92 243.414 36.536C243.414 35.992 243.302 35.592 243.078 35.336C242.886 35.08 242.582 34.936 242.166 34.904L234.966 33.896C232.726 33.576 230.918 32.84 229.542 31.688C228.198 30.536 227.526 28.616 227.526 25.928V20.888C227.526 18.168 228.406 16.088 230.166 14.648C231.926 13.176 234.358 12.44 237.462 12.44H250.902C251.51 12.44 251.942 12.584 252.198 12.872C252.486 13.128 252.63 13.56 252.63 14.168V19.88C252.63 20.488 252.486 20.936 252.198 21.224C251.942 21.48 251.51 21.608 250.902 21.608H239.718C239.302 21.608 238.982 21.752 238.758 22.04C238.534 22.296 238.422 22.632 238.422 23.048C238.422 23.464 238.534 23.816 238.758 24.104C238.982 24.392 239.302 24.552 239.718 24.584L246.87 25.544C249.11 25.864 250.918 26.6 252.294 27.752C253.67 28.904 254.358 30.824 254.358 33.512V38.552C254.358 41.272 253.462 43.368 251.67 44.84C249.91 46.28 247.494 47 244.422 47ZM275.46 47H267.684C267.076 47 266.628 46.872 266.34 46.616C266.084 46.328 265.956 45.88 265.956 45.272V21.704H258.9C258.292 21.704 257.844 21.576 257.556 21.32C257.3 21.032 257.172 20.584 257.172 19.976V14.168C257.172 13.56 257.3 13.128 257.556 12.872C257.844 12.584 258.292 12.44 258.9 12.44H284.244C284.852 12.44 285.284 12.584 285.54 12.872C285.828 13.128 285.972 13.56 285.972 14.168V19.976C285.972 20.584 285.828 21.032 285.54 21.32C285.284 21.576 284.852 21.704 284.244 21.704H277.188V45.272C277.188 45.88 277.044 46.328 276.756 46.616C276.5 46.872 276.068 47 275.46 47Z" fill="white"/>
<rect x="11" y="53" width="280" height="4" rx="2" fill="#FAB387"/>
<rect x="11" y="60" width="123" height="4" rx="2" fill="#FAB387"/>
</svg>
