<svg width="75" height="73" viewBox="0 0 75 73" fill="none" xmlns="http://www.w3.org/2000/svg">
<path d="M33.0323 48H17.9123C13.9123 48 10.9363 47.2 8.98431 45.6C7.06431 44 6.10431 41.536 6.10431 38.208V23.232C6.10431 19.904 7.06431 17.44 8.98431 15.84C10.9363 14.24 13.9123 13.44 17.9123 13.44H29.9123C30.5203 13.44 30.9523 13.584 31.2083 13.872C31.4963 14.128 31.6403 14.56 31.6403 15.168V20.976C31.6403 21.584 31.4963 22.032 31.2083 22.32C30.9523 22.576 30.5203 22.704 29.9123 22.704H19.9283C18.9363 22.704 18.2003 22.912 17.7203 23.328C17.2403 23.712 17.0003 24.304 17.0003 25.104V36.576C17.0003 37.376 17.1763 37.968 17.5283 38.352C17.9123 38.736 18.4723 38.928 19.2083 38.928H23.8643V31.44C23.8643 30.832 23.9923 30.4 24.2483 30.144C24.5363 29.856 24.9843 29.712 25.5923 29.712H33.0323C33.6403 29.712 34.0723 29.856 34.3283 30.144C34.6163 30.4 34.7603 30.832 34.7603 31.44V46.272C34.7603 46.88 34.6163 47.328 34.3283 47.616C34.0723 47.872 33.6403 48 33.0323 48ZM66.7767 48H42.3447C41.7367 48 41.2887 47.872 41.0007 47.616C40.7447 47.328 40.6167 46.88 40.6167 46.272V15.168C40.6167 14.56 40.7447 14.128 41.0007 13.872C41.2887 13.584 41.7367 13.44 42.3447 13.44H49.7847C50.3927 13.44 50.8247 13.584 51.0807 13.872C51.3687 14.128 51.5127 14.56 51.5127 15.168V38.928H58.0887V31.152C58.0887 30.544 58.2167 30.112 58.4727 29.856C58.7607 29.568 59.2087 29.424 59.8167 29.424H66.7767C67.3847 29.424 67.8167 29.568 68.0727 29.856C68.3607 30.112 68.5047 30.544 68.5047 31.152V46.272C68.5047 46.88 68.3607 47.328 68.0727 47.616C67.8167 47.872 67.3847 48 66.7767 48Z" fill="white"/>
<rect x="8" y="53" width="58" height="4" rx="2" fill="#FAB387"/>
<rect x="8" y="60" width="25" height="4" rx="2" fill="#FAB387"/>
</svg>
